<svg width="24" height="24" viewBox="0 0 24 24" fill="none" xmlns="http://www.w3.org/2000/svg">
<path fill-rule="evenodd" clip-rule="evenodd" d="M24 3C24 1.34423 22.6558 0 21 0H3C1.34423 0 0 1.34423 0 3V21C0 22.6558 1.34423 24 3 24H21C22.6558 24 24 22.6558 24 21V3Z" fill="white"/>
<path d="M6.88185 8.37502H2.86185V20.467H6.88185V8.37502Z" fill="black"/>
<path d="M4.899 2.54438C3.52364 2.54438 2.625 3.44859 2.625 4.63374C2.625 5.79399 3.49631 6.72314 4.8458 6.72314H4.87177C6.27347 6.72314 7.14595 5.79399 7.14595 4.63374C7.11994 3.44859 6.27356 2.54438 4.899 2.54438V2.54438Z" fill="black"/>
<path d="M16.7474 8.09067C14.615 8.09067 13.6599 9.26334 13.1251 10.087V8.37502H9.10611C9.15941 9.50925 9.10611 20.4669 9.10611 20.4669H13.125V13.7139C13.125 13.3525 13.151 12.9911 13.2575 12.7328C13.5476 12.0109 14.2093 11.2632 15.3197 11.2632C16.7734 11.2632 17.3558 12.3724 17.3558 13.9973V20.4669H21.3749V13.5327C21.3749 9.81849 19.3918 8.09067 16.7474 8.09067V8.09067Z" fill="black"/>
</svg>
